# xmcd
#
# Track frame offsets:
#	150
#	20731
#	42808
#	63016
#	81206
#	104859
#	128553
#	148293
#	170653
#	187032
#	205570
#	223540
#
# Disc length: 3350 seconds
#
# Revision: 1
# Processed by: cddbd v1.4PL0 Copyright (c) Steve Scherf et al.
# Submitted via: EasyCDDAExtractor 5.1.0
#
DISCID=b00d140c
DTITLE=Various Artist - Shantytown
DYEAR=2003
DGENRE=Country
TTITLE0=Raymond Froggatt - Things I'll Never Forget
TTITLE1=All Done Danc'in
TTITLE2=Your Eyes Say Good Bye
TTITLE3=A Seat In The Bus
TTITLE4=Christine
TTITLE5=Steppin Stones
TTITLE6=Beautiful Love
TTITLE7=Sound Of The World
TTITLE8=Tomorrow
TTITLE9=Cold Black Night
TTITLE10=Where Do I Go From Here
TTITLE11=Shantytown
EXTD=
EXTT0=
EXTT1=
EXTT2=
EXTT3=
EXTT4=
EXTT5=
EXTT6=
EXTT7=
EXTT8=
EXTT9=
EXTT10=
EXTT11=
PLAYORDER=
